<svg width="44" height="40" viewBox="0 0 44 40" fill="none" xmlns="http://www.w3.org/2000/svg">
<path d="M0.648242 9.24735C-0.0209815 11.2824 -0.119115 13.3828 0.114608 15.5205C0.899377 22.6454 5.94809 28.3869 8.28621 35.0223C8.53072 35.7324 8.75916 36.4732 9.01446 37.1851C9.28432 37.9437 9.34734 39.3944 10.1637 39.893C11.0363 40.2843 12.2568 39.4913 13.0327 39.2852C13.7682 39.0891 14.4999 38.8482 15.2246 38.6503C22.0056 36.7791 29.6015 37.6278 35.8992 34.1987C37.7895 33.1712 39.4558 31.8857 40.7483 30.1737C42.0471 28.4571 43.4348 25.7523 43.6044 23.5528C44.0038 18.3769 42.1843 14.3411 37.9203 12.1512L37.4394 11.9067C35.765 11.0635 33.9518 10.5966 32.094 10.4382C30.0985 10.2741 28.4362 10.7181 26.5023 10.8909C25.7726 10.9494 24.9916 10.5397 24.6234 9.90911C23.6569 8.22271 23.0728 6.6041 21.794 5.06631C20.5984 3.63069 19.1788 2.41347 17.5303 1.51355C17.3772 1.43323 17.2195 1.34662 17.0556 1.26454C12.822 -0.97585 8.45789 -0.16826 4.44298 3.12274C2.73751 4.5127 1.3147 7.19519 0.648242 9.24735Z" fill="#FF4D67" fill-opacity="0.5"/>
</svg>
