<svg width="18" height="18" viewBox="0 0 18 18" fill="none" xmlns="http://www.w3.org/2000/svg">
<path d="M11.6565 1.86482L6.6537 0.113846C6.23347 -0.0362378 5.77321 -0.0362378 5.35298 0.10384L1.36076 1.44459C0.550306 1.72474 0 2.48516 0 3.34564V15.2022C0 16.613 1.41078 17.5736 2.72151 17.0633L5.65314 15.9226C5.87327 15.8326 6.12341 15.8326 6.34353 15.9126L11.3463 17.6636C11.7665 17.8137 12.2268 17.8137 12.647 17.6736L16.6393 16.3329C17.4497 16.0627 18 15.2923 18 14.4318V2.57521C18 1.16443 16.5892 0.203896 15.2785 0.714179L12.3469 1.85481C12.1267 1.93486 11.8866 1.94486 11.6565 1.86482ZM12.0067 15.7826L6.00334 13.6714V1.99489L12.0067 4.10607V15.7826Z" fill="white"/>
</svg>
