<svg width="27" height="26" viewBox="0 0 27 26" fill="none" xmlns="http://www.w3.org/2000/svg">
<path d="M0 9.69153V15.6915C0 16.5165 0.675 17.1915 1.5 17.1915H6L10.935 22.1265C11.88 23.0715 13.5 22.3965 13.5 21.0615V4.30653C13.5 2.97153 11.88 2.29653 10.935 3.24153L6 8.19153H1.5C0.675 8.19153 0 8.86653 0 9.69153ZM20.25 12.6915C20.25 10.0365 18.72 7.75653 16.5 6.64653V18.7215C18.72 17.6265 20.25 15.3465 20.25 12.6915ZM16.5 1.36653V1.66653C16.5 2.23653 16.875 2.73153 17.4 2.94153C21.27 4.48653 24 8.28153 24 12.6915C24 17.1015 21.27 20.8965 17.4 22.4415C16.86 22.6515 16.5 23.1465 16.5 23.7165V24.0165C16.5 24.9615 17.445 25.6215 18.315 25.2915C23.4 23.3565 27 18.4515 27 12.6915C27 6.93153 23.4 2.02653 18.315 0.0915338C17.445 -0.253466 16.5 0.421534 16.5 1.36653Z" fill="white"/>
</svg>
