<svg width="18" height="18" viewBox="0 0 18 18" fill="none" xmlns="http://www.w3.org/2000/svg">
<path d="M13.1905 11.6077H12.3569L12.0614 11.3228C13.3277 9.84555 13.9819 7.83014 13.6231 5.68812C13.1272 2.7547 10.6791 0.412183 7.72463 0.0534194C3.26119 -0.495278 -0.495278 3.26119 0.0534194 7.72463C0.412183 10.6791 2.7547 13.1272 5.68812 13.6231C7.83014 13.9819 9.84555 13.3277 11.3228 12.0614L11.6077 12.3569V13.1905L16.0923 17.675C16.5249 18.1077 17.2319 18.1077 17.6645 17.675C18.0971 17.2424 18.0971 16.5354 17.6645 16.1028L13.1905 11.6077ZM6.85937 11.6077C4.23196 11.6077 2.11103 9.48679 2.11103 6.85937C2.11103 4.23196 4.23196 2.11103 6.85937 2.11103C9.48679 2.11103 11.6077 4.23196 11.6077 6.85937C11.6077 9.48679 9.48679 11.6077 6.85937 11.6077Z" fill="#FF4D67"/>
</svg>
