<svg width="309" height="220" viewBox="0 0 309 220" fill="none" xmlns="http://www.w3.org/2000/svg">
<g clip-path="url(#clip0_3344_71402)">
<path d="M20.4804 220H288.504C288.64 220 288.771 219.946 288.867 219.85C288.963 219.754 289.017 219.624 289.017 219.488C289.017 219.352 288.963 219.222 288.867 219.126C288.771 219.03 288.64 218.977 288.504 218.977H20.4804C20.3445 218.977 20.2143 219.03 20.1182 219.126C20.0222 219.222 19.9682 219.352 19.9682 219.488C19.9682 219.624 20.0222 219.754 20.1182 219.85C20.2143 219.946 20.3445 220 20.4804 220Z" fill="#CCCCCC"/>
<path d="M242.588 180.701C238.623 180.701 234.59 180.613 230.49 180.436L230.534 179.416C261.134 180.739 288.133 177.081 308.618 168.835L309 169.782C291.131 176.975 268.355 180.701 242.588 180.701Z" fill="#F0F0F0"/>
<path d="M218.563 182.233C214.598 182.233 210.566 182.144 206.465 181.968L206.509 180.947C237.109 182.271 264.109 178.613 284.593 170.367L284.975 171.314C267.106 178.507 244.331 182.233 218.563 182.233Z" fill="#F0F0F0"/>
<path d="M223.213 150.77C203.65 150.77 182.391 147.866 161.274 142.281C135.161 135.376 111.218 124.952 92.0338 112.138L92.6019 111.289C111.694 124.042 135.531 134.417 161.536 141.294C185.036 147.509 208.713 150.389 229.998 149.629L230.035 150.649C227.787 150.73 225.513 150.77 223.213 150.77Z" fill="#F0F0F0"/>
<path d="M268.094 144.348L267.767 143.381C285.263 137.471 296.207 127.952 299.414 115.851C303.491 100.467 294.634 82.6159 274.475 65.5847C254.212 48.4671 224.994 34.2637 192.2 25.5916L192.462 24.6042C225.399 33.3145 254.76 47.5915 275.135 64.8051C295.613 82.105 304.586 100.326 300.403 116.112C297.104 128.56 285.931 138.324 268.094 144.348Z" fill="#F0F0F0"/>
<path d="M305.289 137.683C301.138 127.467 291.788 118.809 280.776 118.071C287.673 127.883 290.874 139.816 289.811 151.759C289.384 156.363 288.43 161.44 291.021 165.272C292.633 167.656 295.392 169.072 298.21 169.664C301.029 170.257 303.944 170.118 306.82 169.978L307.474 170.276C309.179 159.383 309.44 147.898 305.289 137.683Z" fill="#F2F2F2"/>
<path d="M280.73 118.297C288.37 123.301 294.237 130.582 297.499 139.107C298.233 140.929 298.676 142.856 298.81 144.817C298.879 146.73 298.433 148.628 297.52 150.311C296.7 151.898 295.677 153.427 295.257 155.185C295.056 156.088 295.048 157.024 295.233 157.931C295.419 158.837 295.795 159.694 296.336 160.446C297.635 162.353 299.542 163.681 301.452 164.914C303.573 166.283 305.798 167.672 307.137 169.882C307.299 170.15 307.705 169.883 307.543 169.616C305.215 165.771 300.528 164.487 297.589 161.249C296.217 159.739 295.293 157.806 295.642 155.73C295.948 153.915 297.001 152.338 297.845 150.738C298.761 149.109 299.263 147.28 299.307 145.412C299.274 143.452 298.906 141.511 298.221 139.673C296.743 135.512 294.62 131.608 291.929 128.105C288.879 124.09 285.165 120.626 280.946 117.862C280.685 117.691 280.47 118.128 280.73 118.297V118.297Z" fill="white"/>
<path d="M298.042 149.561C295 148.699 292.395 146.724 290.746 144.028C290.583 143.761 290.177 144.028 290.34 144.295C292.06 147.097 294.775 149.147 297.943 150.037C298.245 150.122 298.342 149.646 298.042 149.561Z" fill="white"/>
<path d="M296.61 136.3C297.968 135.559 299.017 134.361 299.572 132.918C300.126 131.476 300.149 129.883 299.637 128.425C299.532 128.131 299.069 128.279 299.174 128.574C299.653 129.931 299.632 131.414 299.113 132.757C298.594 134.099 297.611 135.211 296.343 135.894C296.068 136.042 296.336 136.448 296.61 136.3Z" fill="white"/>
<path d="M288.563 124.651C288.097 125.047 287.541 125.322 286.943 125.45C286.345 125.578 285.725 125.555 285.138 125.385C284.837 125.296 284.74 125.773 285.039 125.86C285.688 126.046 286.373 126.07 287.034 125.93C287.695 125.79 288.311 125.491 288.83 125.058C288.882 125.021 288.918 124.966 288.931 124.903C288.944 124.841 288.933 124.776 288.899 124.721C288.864 124.668 288.809 124.63 288.745 124.617C288.682 124.604 288.617 124.616 288.563 124.651H288.563Z" fill="white"/>
<path d="M71.9755 96.0538C56.3004 80.6395 49.68 64.5585 53.3333 50.7735C58.0216 33.0834 78.8494 20.8522 110.476 17.2161L110.593 18.2308C79.4065 21.816 58.8964 33.7728 54.3217 51.0348C50.7662 64.4503 57.2905 80.18 72.6928 95.3262L71.9755 96.0538Z" fill="#F0F0F0"/>
<path d="M107.433 151.197C68.9916 134.166 39.3699 112.071 24.0246 88.981L24.8762 88.416C40.1154 111.346 69.5816 133.31 107.847 150.263L107.433 151.197Z" fill="#F0F0F0"/>
<path d="M199.189 152.302C179.625 152.302 158.366 149.398 137.25 143.813C111.136 136.908 87.1935 126.484 68.0092 113.669L68.5772 112.821C87.6692 125.573 111.506 135.949 137.511 142.826C161.012 149.041 184.688 151.921 205.973 151.161L206.01 152.181C203.762 152.262 201.488 152.302 199.189 152.302Z" fill="#F0F0F0"/>
<path d="M244.07 145.88L243.742 144.912C261.239 139.003 272.182 129.483 275.39 117.382C279.467 101.999 270.61 84.1477 250.45 67.1165C230.188 49.9988 200.969 35.7955 168.175 27.1233L168.437 26.136C201.374 34.8463 230.735 49.1232 251.11 66.3369C271.588 83.6368 280.562 101.858 276.378 117.644C273.079 130.092 261.907 139.856 244.07 145.88Z" fill="#F0F0F0"/>
<path d="M255.085 145.18C255.271 145.24 255.458 145.301 255.645 145.365C258.144 146.192 260.572 147.22 262.905 148.44C263.087 148.532 263.27 148.627 263.449 148.724C269.037 151.722 274.02 155.731 278.143 160.546C279.782 162.464 281.273 164.503 282.602 166.647C284.438 169.607 286.192 172.963 288.822 175.083C289.094 175.307 289.38 175.514 289.677 175.703L307.058 171.05C307.093 171.02 307.128 170.993 307.162 170.963L307.865 170.809C307.804 170.693 307.739 170.575 307.678 170.46C307.643 170.393 307.604 170.327 307.569 170.26C307.544 170.215 307.52 170.171 307.5 170.13C307.492 170.115 307.483 170.1 307.476 170.089C307.457 170.048 307.434 170.011 307.416 169.974C307.051 169.311 306.681 168.65 306.306 167.991C306.305 167.987 306.305 167.987 306.3 167.984C303.488 162.931 300.087 158.229 296.166 153.977C296.048 153.851 295.928 153.722 295.801 153.599C294.013 151.731 292.075 150.011 290.006 148.459C288.871 147.612 287.693 146.823 286.478 146.096C283.334 144.222 279.915 142.853 276.345 142.04C269.229 140.421 261.674 141.093 255.55 144.885C255.394 144.982 255.241 145.078 255.085 145.18Z" fill="#F2F2F2"/>
<path d="M255.183 145.389C264.299 144.79 273.373 147.074 281.115 151.919C282.8 152.932 284.315 154.205 285.603 155.689C286.812 157.176 287.599 158.959 287.885 160.853C288.186 162.613 288.291 164.449 289.016 166.105C289.399 166.947 289.957 167.699 290.652 168.311C291.346 168.923 292.163 169.382 293.048 169.657C295.234 170.398 297.557 170.311 299.826 170.147C302.345 169.965 304.958 169.736 307.359 170.695C307.65 170.811 307.814 170.354 307.523 170.238C303.346 168.568 298.831 170.362 294.533 169.544C292.527 169.163 290.624 168.176 289.652 166.308C288.801 164.675 288.692 162.783 288.402 160.998C288.151 159.146 287.449 157.384 286.359 155.866C285.151 154.321 283.687 152.992 282.032 151.937C278.345 149.503 274.296 147.663 270.036 146.485C265.182 145.113 260.128 144.581 255.094 144.912C254.782 144.932 254.874 145.41 255.183 145.389V145.389Z" fill="white"/>
<path d="M287.85 159.94C284.901 161.081 281.63 161.07 278.69 159.91C278.398 159.794 278.235 160.252 278.526 160.367C281.588 161.569 284.992 161.574 288.057 160.379C288.35 160.265 288.14 159.827 287.85 159.94V159.94Z" fill="white"/>
<path d="M265.267 145.751C265.134 146.348 264.855 146.901 264.455 147.363C264.055 147.825 263.546 148.18 262.975 148.397C262.681 148.507 262.891 148.946 263.182 148.836C263.813 148.594 264.374 148.201 264.817 147.691C265.261 147.182 265.572 146.573 265.725 145.915C265.745 145.855 265.741 145.789 265.713 145.731C265.686 145.673 265.638 145.628 265.578 145.605C265.518 145.583 265.451 145.587 265.393 145.614C265.334 145.642 265.289 145.691 265.267 145.752V145.751Z" fill="white"/>
<path d="M278.714 150.213C279.351 148.805 279.467 147.216 279.04 145.731C278.613 144.246 277.672 142.961 276.384 142.105C276.123 141.933 275.842 142.33 276.104 142.502C277.305 143.297 278.181 144.495 278.576 145.878C278.971 147.262 278.857 148.741 278.256 150.049C278.125 150.333 278.584 150.495 278.714 150.213L278.714 150.213Z" fill="white"/>
<path d="M47.9509 97.5858C32.2758 82.1715 25.6554 66.0905 29.3087 52.3055C33.997 34.6154 54.8248 22.3842 86.4517 18.748L86.5685 19.7628C55.3819 23.348 34.8718 35.3047 30.2971 52.5668C26.7416 65.9823 33.2659 81.712 48.6682 96.8582L47.9509 97.5858Z" fill="#F0F0F0"/>
<path d="M83.408 152.729C44.967 135.698 15.3453 113.603 0 90.513L0.851614 89.948C16.0909 112.878 45.5571 134.842 83.8223 151.795L83.408 152.729Z" fill="#F0F0F0"/>
<path d="M17.425 70.233C24.7715 62.0049 36.4905 56.9902 47.1106 59.9921C37.3131 66.918 30.2839 77.0825 27.2666 88.6871C26.1192 93.1667 25.3099 98.2685 21.5804 101.007C19.2599 102.712 16.1851 103.119 13.3313 102.731C10.4773 102.342 7.77884 101.234 5.11676 100.135L4.40045 100.197C6.4599 89.3656 10.0784 78.4611 17.425 70.233Z" fill="#F2F2F2"/>
<path d="M47.0782 60.2211C38.1991 62.3686 30.2231 67.2562 24.2832 74.1897C22.9779 75.6596 21.9127 77.3259 21.1269 79.1272C20.4182 80.9066 20.1994 82.8431 20.4932 84.7355C20.7318 86.5054 21.1809 88.2884 20.9846 90.0854C20.8704 91.0038 20.5631 91.8877 20.083 92.6792C19.6028 93.4707 18.9606 94.1518 18.1985 94.6779C16.3335 96.0383 14.0905 96.6481 11.8763 97.1683C9.41776 97.7459 6.85499 98.307 4.85093 99.9391C4.60811 100.137 4.31513 99.7489 4.55758 99.5515C8.0443 96.7119 12.8901 97.0765 16.7478 95.014C18.5479 94.0516 20.0686 92.5415 20.4383 90.4693C20.7616 88.6573 20.3 86.8183 20.043 85.0282C19.7292 83.1863 19.8717 81.2957 20.458 79.5215C21.1495 77.686 22.1487 75.9816 23.4126 74.481C26.2043 71.0574 29.5175 68.0935 33.2308 65.698C37.4536 62.9405 42.1175 60.925 47.0207 59.7385C47.3242 59.6652 47.3797 60.1483 47.0781 60.2211H47.0782Z" fill="white"/>
<path d="M20.2539 83.8539C23.409 84.0632 26.5271 83.077 28.9866 81.0918C29.2301 80.895 29.5231 81.2828 29.2799 81.4794C26.7167 83.5405 23.4697 84.5603 20.187 84.3352C19.8741 84.3135 19.9428 83.8324 20.2539 83.8539Z" fill="white"/>
<path d="M62.1859 94.149C61.9902 94.1435 61.7944 94.138 61.5961 94.1358C58.964 94.0755 56.3312 94.229 53.7239 94.5946C53.5219 94.6197 53.3175 94.6481 53.1166 94.6789C46.8444 95.6267 40.8029 97.7295 35.2991 100.88C33.1102 102.136 31.0201 103.557 29.0469 105.129C26.322 107.301 23.5405 109.873 20.3503 110.986C20.0188 111.106 19.6801 111.205 19.3363 111.283L4.53163 101.065C4.50965 101.025 4.48519 100.988 4.46304 100.948L3.85327 100.567C3.94936 100.479 4.05093 100.39 4.14703 100.301C4.20256 100.25 4.2614 100.201 4.3169 100.149C4.35497 100.116 4.39322 100.082 4.42564 100.05C4.43828 100.039 4.45107 100.028 4.46138 100.02C4.49383 99.9874 4.52738 99.9607 4.55746 99.9316C5.12379 99.4302 5.69464 98.9319 6.27 98.4367C6.27233 98.4334 6.27234 98.4334 6.27796 98.4323C10.626 94.6171 15.4117 91.3307 20.5348 88.6418C20.6887 88.5637 20.8449 88.482 21.0056 88.4085C23.3185 87.2494 25.7223 86.281 28.1931 85.513C29.5473 85.0969 30.9219 84.7495 32.3113 84.4722C35.9028 83.7625 39.5837 83.6216 43.219 84.0546C50.4659 84.9188 57.3554 88.0886 61.8469 93.7157C61.9618 93.8598 62.0734 94.0016 62.1859 94.149Z" fill="#F2F2F2"/>
<path d="M62.0228 94.3138C53.639 90.6884 44.3248 89.794 35.4031 91.7576C33.475 92.1462 31.6202 92.836 29.9071 93.8016C28.2688 94.7961 26.9269 96.2107 26.021 97.8984C25.1446 99.4551 24.4286 101.149 23.1887 102.466C22.544 103.13 21.7659 103.651 20.9055 103.994C20.0451 104.338 19.1218 104.495 18.1962 104.457C15.8872 104.421 13.7287 103.559 11.6472 102.643C9.33611 101.626 6.95175 100.532 4.36791 100.63C4.05484 100.642 4.05474 100.156 4.36732 100.144C8.86274 99.974 12.5121 103.179 16.8354 103.853C18.8527 104.167 20.9771 103.876 22.5212 102.444C23.8715 101.191 24.6113 99.4452 25.485 97.8614C26.3446 96.2021 27.5979 94.7782 29.1354 93.7142C30.7938 92.6646 32.6189 91.9046 34.5325 91.4666C38.8249 90.412 43.2567 90.0381 47.6654 90.3587C52.6991 90.6967 57.6378 91.8924 62.2678 93.8939C62.5544 94.018 62.3075 94.437 62.0228 94.3138H62.0228Z" fill="white"/>
<path d="M26.3613 97.0505C28.7542 99.1152 31.8383 100.203 34.9985 100.097C35.3116 100.086 35.3118 100.572 34.9991 100.583C31.7103 100.687 28.5031 99.5485 26.0177 97.3945C25.7809 97.1891 26.1258 96.8462 26.3613 97.0505Z" fill="white"/>
<path d="M243.283 99.464C243.645 97.2371 242.131 95.1389 239.902 94.7775C237.673 94.4162 235.572 95.9285 235.21 98.1554C234.849 100.382 236.363 102.48 238.592 102.842C240.821 103.203 242.922 101.691 243.283 99.464Z" fill="#E6E6E6"/>
<path d="M52.4036 91.2695C52.3283 91.8756 52.4049 92.4908 52.6264 93.06C52.848 93.6292 53.2076 94.1345 53.6729 94.5305C53.9122 94.7329 53.5671 95.0756 53.3294 94.8745C52.8173 94.4346 52.4208 93.876 52.1746 93.2477C51.9285 92.6194 51.8401 91.9404 51.9172 91.2701C51.9191 91.2063 51.9453 91.1457 51.9905 91.1005C52.0356 91.0553 52.0963 91.029 52.1601 91.0269C52.2245 91.0271 52.2862 91.0527 52.3318 91.0982C52.3774 91.1436 52.4032 91.2052 52.4036 91.2695H52.4036Z" fill="white"/>
<path d="M38.2386 90.9564C38.112 89.4164 38.5375 87.8816 39.4392 86.6261C40.3408 85.3706 41.6599 84.4762 43.1608 84.1025C43.4647 84.0279 43.595 84.4962 43.2907 84.5709C41.8924 84.9163 40.6638 85.7496 39.8266 86.9205C38.9893 88.0913 38.5987 89.5225 38.7251 90.9558C38.7522 91.2673 38.2656 91.2661 38.2386 90.9564Z" fill="white"/>
<path d="M37.5629 63.5754C37.8681 64.1046 38.3 64.5498 38.8199 64.871C39.3399 65.1923 39.9316 65.3794 40.5419 65.4158C40.8549 65.4335 40.7858 65.9147 40.4749 65.8971C39.8008 65.8538 39.1476 65.6463 38.5724 65.2926C37.9971 64.939 37.5173 64.4501 37.1749 63.8685C37.138 63.8164 37.1224 63.7522 37.1312 63.689C37.14 63.6257 37.1725 63.5682 37.2222 63.5281C37.2738 63.4896 37.3385 63.473 37.4023 63.4818C37.4661 63.4907 37.5238 63.5243 37.5629 63.5755L37.5629 63.5754Z" fill="white"/>
<path d="M26.0642 71.8446C25.035 70.6912 24.4497 69.2098 24.4129 67.6651C24.3761 66.1204 24.8902 64.6129 25.8634 63.4119C26.0611 63.1695 26.4474 63.4651 26.2494 63.7078C25.3411 64.8245 24.8624 66.2288 24.8996 67.6671C24.9368 69.1055 25.4875 70.4832 26.4523 71.5516C26.6617 71.784 26.2724 72.0757 26.0642 71.8446Z" fill="white"/>
<path d="M86.7563 59.1622C89.0148 59.1622 90.8456 57.3333 90.8456 55.0773C90.8456 52.8213 89.0148 50.9924 86.7563 50.9924C84.4979 50.9924 82.6671 52.8213 82.6671 55.0773C82.6671 57.3333 84.4979 59.1622 86.7563 59.1622Z" fill="#FD6584"/>
<path d="M220.284 18.1318C213.93 16.0655 207.395 14.1414 200.86 12.4131C163.252 2.46769 126.283 -1.06345 93.9477 2.20342L93.8448 1.18719C126.3 -2.09039 163.396 1.44921 201.121 11.4258C207.675 13.1591 214.229 15.0886 220.6 17.161L220.284 18.1318Z" fill="#F0F0F0"/>
<path d="M196.259 19.6636C189.906 17.5972 183.371 15.6732 176.835 13.9449C139.227 3.99945 102.258 0.4683 69.9231 3.73516L69.8203 2.71893C102.276 -0.558655 139.371 2.98094 177.097 12.9576C183.651 14.6909 190.204 16.6203 196.576 18.6927L196.259 19.6636Z" fill="#F0F0F0"/>
<path d="M208.607 57.1768H207.439V25.2359C207.439 20.3329 205.49 15.6308 202.019 12.1639C198.548 8.69698 193.841 6.74928 188.933 6.74927H121.189C118.758 6.74926 116.352 7.22742 114.106 8.15645C111.861 9.08548 109.821 10.4472 108.102 12.1638C106.384 13.8805 105.021 15.9184 104.091 18.1613C103.161 20.4042 102.682 22.8081 102.682 25.2358V200.467C102.682 205.37 104.632 210.072 108.102 213.539C111.573 217.005 116.28 218.953 121.189 218.953H188.933C193.841 218.953 198.548 217.006 202.019 213.539C205.49 210.072 207.439 205.37 207.439 200.467V79.913H208.607V57.1768Z" fill="#3F3D56"/>
<path d="M203.499 25.3641V200.338C203.499 202.151 203.142 203.946 202.448 205.62C201.754 207.295 200.736 208.817 199.453 210.099C198.17 211.381 196.647 212.398 194.971 213.091C193.295 213.785 191.498 214.143 189.683 214.143H121.608C117.943 214.143 114.428 212.689 111.837 210.1C109.245 207.512 107.789 204.001 107.789 200.34V25.3641C107.789 23.5514 108.146 21.7564 108.84 20.0816C109.535 18.4068 110.552 16.885 111.835 15.6032C113.119 14.3213 114.642 13.3044 116.318 12.6106C117.995 11.9168 119.792 11.5597 121.607 11.5596H129.869C129.463 12.5554 129.307 13.6359 129.417 14.7058C129.527 15.7758 129.898 16.8024 130.499 17.6951C131.099 18.5879 131.91 19.3194 132.86 19.8253C133.811 20.3311 134.871 20.5957 135.947 20.5958H174.759C175.835 20.595 176.895 20.3299 177.845 19.8239C178.795 19.3179 179.606 18.5864 180.206 17.6939C180.806 16.8013 181.178 15.7751 181.288 14.7054C181.398 13.6357 181.243 12.5554 180.837 11.5596H189.68C191.494 11.5595 193.291 11.9164 194.968 12.6101C196.645 13.3037 198.168 14.3204 199.451 15.6021C200.734 16.8839 201.752 18.4055 202.447 20.0803C203.141 21.755 203.499 23.55 203.499 25.3627L203.499 25.3641Z" fill="#F2F2F2"/>
<path d="M198.341 197.75H177.223V198.695H198.341V197.75Z" fill="white"/>
<path d="M166.203 197.75H145.085V198.695H166.203V197.75Z" fill="white"/>
<path d="M134.064 197.75H112.947V198.695H134.064V197.75Z" fill="white"/>
<path d="M202.335 212.718L195.912 212.717L192.857 187.972L202.336 187.972L202.335 212.718Z" fill="#FFB8B8"/>
<path d="M203.9 219.133H200.234L199.58 215.676L197.905 219.133H188.183C187.717 219.133 187.263 218.984 186.888 218.708C186.512 218.432 186.235 218.044 186.096 217.6C185.958 217.155 185.965 216.678 186.117 216.238C186.269 215.798 186.558 215.418 186.941 215.154L194.704 209.798V206.303L202.87 206.79L203.9 219.133Z" fill="#2F2E41"/>
<path d="M252.343 209.941L245.992 210.899L239.268 186.888L247.593 185.473L252.343 209.941Z" fill="#FFB8B8"/>
<path d="M253.365 219.133H249.7L249.045 215.676L247.37 219.133H237.648C237.182 219.133 236.728 218.984 236.353 218.708C235.977 218.432 235.7 218.044 235.561 217.6C235.423 217.155 235.43 216.678 235.582 216.238C235.734 215.798 236.023 215.418 236.406 215.154L244.17 209.798V206.303L252.335 206.79L253.365 219.133Z" fill="#2F2E41"/>
<path d="M188.75 165.87H119.912C119.444 165.87 118.994 165.685 118.663 165.354C118.332 165.023 118.146 164.574 118.146 164.106C118.146 163.638 118.332 163.189 118.663 162.859C118.994 162.528 119.444 162.342 119.912 162.342H188.75C189.218 162.342 189.668 162.528 189.999 162.859C190.33 163.189 190.516 163.638 190.516 164.106C190.516 164.574 190.33 165.023 189.999 165.354C189.668 165.685 189.218 165.87 188.75 165.87Z" fill="#CCCCCC"/>
<path d="M188.75 153.596H119.912C119.444 153.596 118.994 153.41 118.663 153.079C118.332 152.748 118.146 152.299 118.146 151.831C118.146 151.363 118.332 150.915 118.663 150.584C118.994 150.253 119.444 150.067 119.912 150.067H188.75C189.218 150.067 189.668 150.253 189.999 150.584C190.33 150.915 190.516 151.363 190.516 151.831C190.516 152.299 190.33 152.748 189.999 153.079C189.668 153.41 189.218 153.596 188.75 153.596Z" fill="#CCCCCC"/>
<path d="M188.75 141.321H119.912C119.68 141.321 119.45 141.275 119.236 141.186C119.022 141.098 118.827 140.968 118.663 140.804C118.499 140.64 118.369 140.446 118.28 140.231C118.191 140.017 118.146 139.788 118.146 139.556C118.146 139.325 118.191 139.095 118.28 138.881C118.369 138.667 118.499 138.473 118.663 138.309C118.827 138.145 119.022 138.015 119.236 137.926C119.45 137.838 119.68 137.792 119.912 137.792H188.75C188.982 137.792 189.212 137.838 189.426 137.926C189.64 138.015 189.835 138.145 189.999 138.309C190.163 138.473 190.293 138.667 190.382 138.881C190.47 139.095 190.516 139.325 190.516 139.556C190.516 139.788 190.47 140.017 190.382 140.231C190.293 140.446 190.163 140.64 189.999 140.804C189.835 140.968 189.64 141.098 189.426 141.186C189.212 141.275 188.982 141.321 188.75 141.321Z" fill="#CCCCCC"/>
<path d="M196.815 110.132L219.973 111.076L222.809 95.4962L202.959 89.3591L196.815 110.132Z" fill="#FFB8B8"/>
<path d="M220.919 106.355L198.705 102.578L197.915 104.205C193.664 112.969 191.154 122.473 190.524 132.192C189.987 140.396 189.672 149.061 189.661 158.144C189.645 172.217 190.364 185.276 191.501 197.158L203.692 197.082C203.34 184.466 203.819 171.841 205.127 159.288C206.061 150.337 207.358 141.976 208.858 134.261C211.641 145.587 215.569 156.602 220.581 167.135C224.842 176.135 233.605 186.538 237.865 195.538C242.231 195.015 246.596 194.491 250.962 193.968C247.522 184.88 241.384 171.608 237.944 162.52C233.025 149.525 230.803 140.714 225.884 127.72C226.164 125.277 226.219 122.813 226.047 120.361C225.818 116.272 224.967 111.366 222.478 108.096L220.919 106.355Z" fill="#2F2E41"/>
<path d="M104.499 77.2502H100.718V89.053H104.499V77.2502Z" fill="#3F3D56"/>
<path d="M155.644 117.151C173.323 117.151 187.654 102.835 187.654 85.1758C187.654 67.5162 173.323 53.2002 155.644 53.2002C137.965 53.2002 123.634 67.5162 123.634 85.1758C123.634 102.835 137.965 117.151 155.644 117.151Z" fill="#D1D3D4"/>
<path d="M155.644 115.764C171.772 115.764 184.847 102.704 184.847 86.5928C184.847 70.4819 171.772 57.4214 155.644 57.4214C139.516 57.4214 126.441 70.4819 126.441 86.5928C126.441 102.704 139.516 115.764 155.644 115.764Z" fill="#FF4D67"/>
<path d="M153.094 98.0264C153.031 98.0264 152.968 98.0249 152.904 98.0218C152.344 97.9947 151.796 97.8469 151.298 97.5885C150.801 97.3302 150.365 96.9675 150.021 96.5252L145.418 90.6146C144.786 89.8002 144.502 88.7682 144.63 87.7452C144.758 86.7222 145.287 85.7917 146.101 85.1578L146.266 85.0295C147.081 84.3973 148.114 84.114 149.139 84.2416C150.163 84.3692 151.095 84.8974 151.73 85.7103C151.936 85.9759 152.198 86.1937 152.497 86.3488C152.796 86.5039 153.124 86.5926 153.461 86.6089C153.797 86.6286 154.134 86.5737 154.447 86.4483C154.76 86.3229 155.041 86.13 155.271 85.8833L164.616 76.0291C165.327 75.2816 166.305 74.8462 167.337 74.8183C168.369 74.7904 169.369 75.1724 170.119 75.8804L170.271 76.0238C171.02 76.7336 171.456 77.7111 171.484 78.7418C171.512 79.7725 171.13 80.7722 170.421 81.5216L155.919 96.8121C155.556 97.1958 155.118 97.5014 154.632 97.7102C154.146 97.919 153.623 98.0266 153.094 98.0264Z" fill="white"/>
<path opacity="0.16" d="M155.644 111.723C148.256 111.722 141.143 108.924 135.738 103.891C130.334 98.8589 127.04 91.9672 126.521 84.6052C126.474 85.2843 126.441 85.9675 126.441 86.6587C126.441 94.3954 129.518 101.815 134.994 107.286C140.471 112.757 147.899 115.83 155.644 115.83C163.389 115.83 170.817 112.757 176.293 107.286C181.77 101.815 184.847 94.3954 184.847 86.6587C184.847 85.9675 184.814 85.2843 184.767 84.6052C184.248 91.9672 180.954 98.8589 175.55 103.891C170.145 108.924 163.032 111.722 155.644 111.723Z" fill="#231F20"/>
<path d="M104.499 63.0869H100.718V74.8897H104.499V63.0869Z" fill="#3F3D56"/>
<path d="M205.568 76.388L205.792 69.0276L194.568 66.2167L174.361 60.3278C174.093 59.5174 173.586 58.8071 172.906 58.2911C172.225 57.775 171.404 57.4774 170.551 57.4377C169.698 57.3979 168.852 57.6179 168.127 58.0684C167.401 58.519 166.83 59.1789 166.488 59.961C166.146 60.743 166.05 61.6102 166.213 62.448C166.375 63.2857 166.788 64.0545 167.397 64.6526C168.007 65.2507 168.783 65.65 169.625 65.7975C170.466 65.9451 171.332 65.8341 172.109 65.4791L191.754 73.5458L205.568 76.388Z" fill="#FFB8B8"/>
<path d="M198.335 76.3363L204.649 67.3406L204.807 67.3615C204.906 67.3746 214.808 68.6978 221.299 70.6288C222.028 70.8219 222.707 71.1716 223.287 71.6536C223.868 72.1356 224.336 72.7382 224.659 73.4195C225.123 74.3715 225.298 75.4382 225.164 76.4884C225.029 77.5387 224.591 78.5269 223.902 79.3317C223.201 80.2017 222.264 80.8516 221.203 81.2037C220.142 81.5559 219.002 81.5954 217.919 81.3175L198.335 76.3363Z" fill="#FF4D67"/>
<path d="M224.35 99.5813C225.46 101.653 222.825 105.944 220.919 106.355L198.952 99.262L210.013 67.2461L215.577 68.2564L224.477 69.7543L227.634 72.6207C228.429 73.3433 228.997 74.2809 229.269 75.3197C229.541 76.3585 229.505 77.4538 229.165 78.4725L224.35 99.5813Z" fill="#FF4D67"/>
<path d="M209.229 87.2085L203.014 83.2471L194.85 91.4378L179.438 105.76C178.605 105.575 177.734 105.647 176.942 105.966C176.15 106.285 175.473 106.838 175.002 107.549C174.531 108.261 174.287 109.099 174.303 109.952C174.319 110.805 174.594 111.634 175.092 112.327C175.589 113.021 176.285 113.548 177.089 113.837C177.892 114.127 178.765 114.166 179.591 113.95C180.418 113.733 181.159 113.271 181.716 112.625C182.274 111.979 182.622 111.178 182.715 110.33L199.711 97.6051L209.229 87.2085Z" fill="#FFB8B8"/>
<path d="M205.481 93.3874L200.979 83.3636L201.077 83.2391C201.139 83.161 207.348 75.3426 212.332 70.7619C212.872 70.2349 213.52 69.8318 214.231 69.5807C214.943 69.3295 215.701 69.2365 216.452 69.3081C217.508 69.3979 218.515 69.7937 219.349 70.4468C220.183 71.0999 220.809 71.982 221.148 72.9849C221.537 74.0319 221.616 75.1686 221.376 76.2592C221.135 77.3498 220.586 78.3481 219.792 79.1349L205.481 93.3874Z" fill="#FF4D67"/>
<path d="M219.483 65.1068C224.879 65.1068 229.253 60.7376 229.253 55.3479C229.253 49.9581 224.879 45.5889 219.483 45.5889C214.088 45.5889 209.714 49.9581 209.714 55.3479C209.714 60.7376 214.088 65.1068 219.483 65.1068Z" fill="#FFB8B8"/>
<path d="M227.373 69.4888L227.336 69.4794L213.139 65.9323C212.647 65.8094 212.191 65.5731 211.807 65.2422C211.423 64.9114 211.121 64.4952 210.928 64.0272C210.734 63.5591 210.652 63.0522 210.69 62.547C210.727 62.0419 210.883 61.5526 211.144 61.1183L211.613 60.3389C212.071 59.5778 212.331 58.7143 212.369 57.8271C212.407 56.94 212.222 56.0574 211.831 55.26C211.158 53.9577 210.002 52.9706 208.609 52.5108L208.562 52.4882L208.263 52.3028C207.97 52.1647 207.71 51.9669 207.497 51.7221C207.285 51.4773 207.127 51.191 207.032 50.8814C206.934 50.5607 206.904 50.2229 206.944 49.8898C206.985 49.5568 207.095 49.236 207.267 48.948C208.52 46.8539 210.396 45.2021 212.633 44.2225C215.459 43.0072 218.642 42.9116 221.537 43.9554C221.729 43.7784 221.963 43.652 222.217 43.5876C222.471 43.5232 222.736 43.5228 222.99 43.5863C230.343 45.365 230.948 50.2948 229.495 58.2082L231.215 65.1347C231.336 65.6238 231.35 66.1334 231.254 66.6282C231.159 67.123 230.956 67.591 230.661 67.9998C230.366 68.4086 229.986 68.7484 229.546 68.9954C229.107 69.2425 228.618 69.391 228.115 69.4305L227.373 69.4888ZM221.458 44.0333L221.457 44.0342L221.458 44.0333ZM221.635 43.99L221.637 43.9904L221.635 43.99Z" fill="#2F2E41"/>
<path d="M104.499 40.4255H100.718V60.7263H104.499V40.4255Z" fill="#3F3D56"/>
<path d="M198.341 28.2622H177.223V29.2064H198.341V28.2622Z" fill="white"/>
<path d="M166.203 28.2622H145.085V29.2064H166.203V28.2622Z" fill="white"/>
<path d="M134.064 28.2622H112.947V29.2064H134.064V28.2622Z" fill="white"/>
<path d="M137.11 16.3477C138.154 16.3477 139 15.5022 139 14.4592C139 13.4163 138.154 12.5708 137.11 12.5708C136.066 12.5708 135.219 13.4163 135.219 14.4592C135.219 15.5022 136.066 16.3477 137.11 16.3477Z" fill="white"/>
<path d="M86.5901 13.1932C88.8486 13.1932 90.6795 11.3643 90.6795 9.10833C90.6795 6.8523 88.8486 5.02344 86.5901 5.02344C84.3317 5.02344 82.5009 6.8523 82.5009 9.10833C82.5009 11.3643 84.3317 13.1932 86.5901 13.1932Z" fill="#E6E6E6"/>
</g>
<defs>
<clipPath id="clip0_3344_71402">
<rect width="309" height="220" fill="white"/>
</clipPath>
</defs>
</svg>
