<svg width="11" height="14" viewBox="0 0 11 14" fill="none" xmlns="http://www.w3.org/2000/svg">
<path d="M5.44151 1.55868V0.341138C5.44151 0.0350531 5.07421 -0.114588 4.86335 0.103072L2.95882 2.0008C2.82278 2.13684 2.82278 2.3477 2.95882 2.48373L4.85655 4.38146C5.07421 4.59232 5.44151 4.44268 5.44151 4.13659V2.91905C7.69294 2.91905 9.52264 4.74876 9.52264 7.00019C9.52264 7.53754 9.42061 8.06128 9.22336 8.53061C9.12133 8.77548 9.19615 9.05436 9.3798 9.23801C9.7267 9.5849 10.3117 9.46247 10.4953 9.00674C10.747 8.38777 10.883 7.70758 10.883 7.00019C10.883 3.99375 8.44795 1.55868 5.44151 1.55868ZM5.44151 11.0813C3.19009 11.0813 1.36038 9.25161 1.36038 7.00019C1.36038 6.46284 1.46241 5.93909 1.65966 5.46976C1.76169 5.22489 1.68687 4.94602 1.50322 4.76237C1.15632 4.41547 0.571359 4.5379 0.387708 4.99363C0.136038 5.6126 0 6.29279 0 7.00019C0 10.0066 2.43508 12.4417 5.44151 12.4417V13.6592C5.44151 13.9653 5.80881 14.115 6.01967 13.8973L7.9174 11.9996C8.05344 11.8635 8.05344 11.6527 7.9174 11.5166L6.01967 9.61891C5.80881 9.40806 5.44151 9.5577 5.44151 9.86378V11.0813Z" fill="white"/>
</svg>
