<svg width="26" height="32" viewBox="0 0 26 32" fill="none" xmlns="http://www.w3.org/2000/svg">
<path d="M19.3638 0.016014C19.2958 -0.0599857 16.8458 0.0460139 14.7138 2.36C12.5818 4.672 12.9098 7.32399 12.9578 7.39199C13.0058 7.45999 15.9978 7.56598 17.9078 4.876C19.8178 2.18601 19.4318 0.0940137 19.3638 0.016014ZM25.9918 23.4819C25.8958 23.2899 21.3418 21.0139 21.7658 16.638C22.1898 12.26 25.1158 11.06 25.1618 10.93C25.2078 10.8 23.9678 9.34998 22.6538 8.61598C21.689 8.09849 20.6212 7.802 19.5278 7.74798C19.3118 7.74198 18.5618 7.55799 17.0198 7.97998C16.0038 8.25798 13.7138 9.15798 13.0838 9.19398C12.4518 9.22998 10.5718 8.14998 8.54982 7.86398C7.25582 7.61398 5.88383 8.12598 4.90183 8.51998C3.92184 8.91198 2.05784 10.028 0.753849 12.994C-0.550146 15.958 0.131851 20.6539 0.619849 22.1139C1.10785 23.5719 1.86984 25.9619 3.16584 27.7059C4.31784 29.6739 5.84583 31.0399 6.48383 31.5039C7.12182 31.9679 8.92182 32.2759 10.1698 31.6379C11.1738 31.0219 12.9858 30.6679 13.7018 30.6939C14.4158 30.7199 15.8238 31.0019 17.2658 31.7719C18.4078 32.1659 19.4878 32.0019 20.5698 31.5619C21.6518 31.1199 23.2178 29.4439 25.0458 26.0459C25.7398 24.4659 26.0558 23.6119 25.9918 23.4819Z" fill="black"/>
<path d="M19.3638 0.016014C19.2958 -0.0599857 16.8458 0.0460139 14.7138 2.36C12.5818 4.672 12.9098 7.32399 12.9578 7.39199C13.0058 7.45999 15.9978 7.56598 17.9078 4.876C19.8178 2.18601 19.4318 0.0940137 19.3638 0.016014ZM25.9918 23.4819C25.8958 23.2899 21.3418 21.0139 21.7658 16.638C22.1898 12.26 25.1158 11.06 25.1618 10.93C25.2078 10.8 23.9678 9.34998 22.6538 8.61598C21.689 8.09849 20.6212 7.802 19.5278 7.74798C19.3118 7.74198 18.5618 7.55799 17.0198 7.97998C16.0038 8.25798 13.7138 9.15798 13.0838 9.19398C12.4518 9.22998 10.5718 8.14998 8.54982 7.86398C7.25582 7.61398 5.88383 8.12598 4.90183 8.51998C3.92184 8.91198 2.05784 10.028 0.753849 12.994C-0.550146 15.958 0.131851 20.6539 0.619849 22.1139C1.10785 23.5719 1.86984 25.9619 3.16584 27.7059C4.31784 29.6739 5.84583 31.0399 6.48383 31.5039C7.12182 31.9679 8.92182 32.2759 10.1698 31.6379C11.1738 31.0219 12.9858 30.6679 13.7018 30.6939C14.4158 30.7199 15.8238 31.0019 17.2658 31.7719C18.4078 32.1659 19.4878 32.0019 20.5698 31.5619C21.6518 31.1199 23.2178 29.4439 25.0458 26.0459C25.7398 24.4659 26.0558 23.6119 25.9918 23.4819Z" fill="black"/>
</svg>
