<svg width="28" height="24" viewBox="0 0 28 24" fill="none" xmlns="http://www.w3.org/2000/svg">
<path d="M0.402773 11.5054C0.768913 12.7693 1.44725 13.8683 2.30683 14.8713C5.17464 18.212 9.72494 19.3731 13.2107 21.9271C13.5809 22.2024 13.9535 22.4988 14.3297 22.7713C14.7295 23.0624 15.2644 23.7761 15.8511 23.7459C16.4292 23.6419 16.7732 22.8167 17.0952 22.4432C17.4002 22.0888 17.6877 21.713 17.9866 21.3614C20.7763 18.0619 24.922 15.8591 26.9266 11.9372C27.5289 10.761 27.9281 9.5315 27.9901 8.21535C28.0536 6.89472 27.8195 5.04218 27.1431 3.86808C25.5513 1.10515 23.2297 -0.310475 20.3085 0.0572366L19.9799 0.0999941C18.8386 0.252877 17.7573 0.644682 16.7604 1.20841C15.6917 1.8169 15.0027 2.61832 14.082 3.3763C13.7323 3.65893 13.1943 3.72193 12.789 3.52985C11.7143 3.00978 10.857 2.39155 9.67551 2.05509C8.57158 1.74163 7.42982 1.61653 6.28197 1.73169C6.17648 1.74404 6.06652 1.75477 5.95495 1.76998C3.03163 2.10157 1.09873 4.02391 0.20379 7.08443C-0.179145 8.38043 0.029315 10.2338 0.402773 11.5054Z" fill="#FF4D67" fill-opacity="0.7"/>
</svg>
