<svg width="19" height="16" viewBox="0 0 19 16" fill="none" xmlns="http://www.w3.org/2000/svg">
<path d="M0.0385489 4.61727C-0.0685138 5.47293 0.0550695 6.31023 0.31264 7.13666C1.17339 9.8906 3.61161 11.7684 5.04815 14.2089C5.19963 14.4706 5.34714 14.7456 5.50302 15.0071C5.66826 15.2859 5.80529 15.8541 6.16631 15.9879C6.54126 16.0751 6.9621 15.6675 7.25269 15.5261C7.52809 15.3918 7.79853 15.24 8.06953 15.1058C10.6036 13.8425 13.6699 13.5906 15.8927 11.7492C16.56 11.1972 17.1188 10.5606 17.4971 9.78434C17.8775 9.00585 18.2166 7.83008 18.1136 6.94808C17.8713 4.87252 16.8406 3.41889 14.9869 2.88338L14.778 2.82397C14.0514 2.6203 13.299 2.57601 12.5528 2.65705C11.7519 2.74644 11.1295 3.05036 10.3789 3.26808C10.0952 3.34759 9.75499 3.24612 9.56077 3.02549C9.04863 2.434 8.69275 1.83974 8.06874 1.3311C7.48544 0.856401 6.83057 0.485282 6.10979 0.257204C6.04309 0.237308 5.97412 0.215281 5.90302 0.195526C4.05741 -0.362267 2.39585 0.294093 1.0642 1.9045C0.497913 2.58541 0.143201 3.75507 0.0385489 4.61727Z" fill="#FF4D67" fill-opacity="0.3"/>
</svg>
