<svg width="28" height="28" viewBox="0 0 28 28" fill="none" xmlns="http://www.w3.org/2000/svg">
<path d="M28 17.9798V10.0089C28 8.66783 26.3727 7.98978 25.4234 8.93906L21.9728 12.4047V7.1309C21.9728 6.30217 21.2948 5.62411 20.466 5.62411H12.0129L25.4385 19.0496C26.3727 19.9989 28 19.3209 28 17.9798ZM0.440737 0.440737C-0.146912 1.02839 -0.146912 1.97767 0.440737 2.56532L3.48446 5.62411H2.3845C1.55576 5.62411 0.877708 6.30217 0.877708 7.1309V22.1988C0.877708 23.0276 1.55576 23.7056 2.3845 23.7056H20.466C20.7825 23.7056 21.0537 23.5851 21.2948 23.4344L25.0316 27.1713C25.6193 27.7589 26.5686 27.7589 27.1562 27.1713C27.7438 26.5836 27.7438 25.6343 27.1562 25.0467L2.56532 0.440737C1.97767 -0.146912 1.02839 -0.146912 0.440737 0.440737Z" fill="white"/>
</svg>
