<svg width="24" height="25" viewBox="0 0 24 25" fill="none" xmlns="http://www.w3.org/2000/svg">
<g clip-path="url(#clip0_3341_68199)">
<path d="M23.9873 12.7338C23.9873 11.7095 23.9057 10.9621 23.729 10.187H12.239V14.8099H18.9833C18.8474 15.9588 18.1132 17.6889 16.4814 18.8515L16.4585 19.0063L20.0915 21.8711L20.3431 21.8966C22.6547 19.7236 23.9873 16.5262 23.9873 12.7338Z" fill="#4285F4"/>
<path d="M12.2391 24.9142C15.5433 24.9142 18.3172 23.8069 20.3433 21.8969L16.4815 18.8517C15.4481 19.5853 14.0612 20.0974 12.2391 20.0974C9.00292 20.0974 6.25623 17.9244 5.27711 14.9209L5.13359 14.9333L1.35604 17.9092L1.30664 18.049C3.31906 22.1182 7.45273 24.9142 12.2391 24.9142Z" fill="#34A853"/>
<path d="M5.27726 14.9209C5.01892 14.1458 4.8694 13.3153 4.8694 12.4572C4.8694 11.599 5.01892 10.7685 5.26367 9.99343L5.25683 9.82835L1.43194 6.80469L1.3068 6.86528C0.477385 8.55392 0.00146484 10.4502 0.00146484 12.4572C0.00146484 14.4641 0.477385 16.3603 1.3068 18.049L5.27726 14.9209Z" fill="#FBBC05"/>
<path d="M12.2391 4.8167C14.5371 4.8167 16.0871 5.8271 16.971 6.67147L20.4248 3.23884C18.3036 1.23187 15.5433 0 12.2391 0C7.45273 0 3.31906 2.7959 1.30664 6.86517L5.26351 9.99332C6.25622 6.98979 9.00291 4.8167 12.2391 4.8167Z" fill="#EB4335"/>
</g>
<defs>
<clipPath id="clip0_3341_68199">
<rect width="24" height="25" fill="white"/>
</clipPath>
</defs>
</svg>
