<svg width="50" height="50" viewBox="0 0 50 50" fill="none" xmlns="http://www.w3.org/2000/svg">
<path d="M25 0C11.2 0 0 11.2 0 25C0 38.7999 11.2 49.9999 25 49.9999C38.7999 49.9999 49.9999 38.7999 49.9999 25C49.9999 11.2 38.7999 0 25 0ZM18.225 35.7249L9.24998 26.75C8.27499 25.775 8.27499 24.2 9.24998 23.225C10.225 22.25 11.8 22.25 12.775 23.225L20 30.4249L37.1999 13.225C38.1749 12.25 39.7499 12.25 40.7249 13.225C41.6999 14.2 41.6999 15.775 40.7249 16.75L21.75 35.7249C20.8 36.6999 19.2 36.6999 18.225 35.7249Z" fill="white"/>
</svg>
