<svg width="14" height="14" viewBox="0 0 14 14" fill="none" xmlns="http://www.w3.org/2000/svg">
<path d="M13.6894 0.321197C13.2753 -0.0929079 12.6063 -0.0929079 12.1922 0.321197L6.99997 5.50282L1.80773 0.310579C1.39362 -0.103526 0.724684 -0.103526 0.310579 0.310579C-0.103526 0.724684 -0.103526 1.39362 0.310579 1.80773L5.50282 6.99997L0.310579 12.1922C-0.103526 12.6063 -0.103526 13.2753 0.310579 13.6894C0.724684 14.1035 1.39362 14.1035 1.80773 13.6894L6.99997 8.49712L12.1922 13.6894C12.6063 14.1035 13.2753 14.1035 13.6894 13.6894C14.1035 13.2753 14.1035 12.6063 13.6894 12.1922L8.49712 6.99997L13.6894 1.80773C14.0928 1.40424 14.0928 0.724684 13.6894 0.321197Z" fill="#858C94"/>
</svg>
