<svg width="35" height="32" viewBox="0 0 35 32" fill="none" xmlns="http://www.w3.org/2000/svg">
<path fill-rule="evenodd" clip-rule="evenodd" d="M17.4962 2.75023C18.1735 2.27559 18.8679 1.85634 19.5733 1.49726C22.8282 -0.15944 26.687 -0.680204 29.9966 1.2306C33.3062 3.14138 34.7846 6.7436 34.9773 10.3907C35.1716 14.0698 34.1177 18.1939 31.9265 21.9892L31.9264 21.9893C29.7352 25.7845 26.6906 28.7594 23.4072 30.4306C20.9633 31.6746 18.1788 32.2781 15.542 31.6927C15.3039 31.7 15.061 31.6772 14.8179 31.6213C10.3012 30.5826 5.9271 26.9316 3.07361 21.9893L3.07361 21.9893C0.882395 18.1939 -0.171606 14.0698 0.0227463 10.3907C0.215407 6.7436 1.69383 3.14138 5.00344 1.23059L5.00344 1.23059C9.01226 -1.08387 13.7168 0.117869 17.4962 2.75023ZM8.0385 19.2464C8.28414 16.196 9.30811 12.9629 11.0542 9.93867C11.7129 8.79774 12.4487 7.73095 13.245 6.75143C10.9559 5.46016 9.00222 5.47006 7.83885 6.14172L6.42115 3.68616L7.83885 6.14172C6.74091 6.77561 5.81589 8.22564 5.68572 10.6898C5.55724 13.122 6.26102 16.1683 7.98473 19.1538M8.0385 19.2464C8.02052 19.2156 8.0026 19.1848 7.98473 19.1538L8.0385 19.2464ZM15.8194 25.7862C16.9173 26.4201 18.6356 26.4961 20.8348 25.3768C23.0054 24.2719 25.2916 22.1394 27.0153 19.1538C28.739 16.1683 29.4428 13.122 29.3143 10.6899C29.1841 8.22564 28.2591 6.77561 27.1612 6.14172L28.5726 3.69696L27.1612 6.14171C26.0632 5.50782 24.3449 5.43174 22.1458 6.55111C19.9752 7.65593 17.689 9.78854 15.9653 12.7741L13.5097 11.3564L15.9653 12.7741C14.2416 15.7596 13.5378 18.8058 13.6663 21.238C13.7965 23.7022 14.7215 25.1523 15.8194 25.7862Z" fill="white"/>
</svg>
