<svg width="22" height="20" viewBox="0 0 22 20" fill="none" xmlns="http://www.w3.org/2000/svg">
<path d="M0.477631 4.27438C0.077615 5.27242 -0.0384258 6.32134 0.0105655 7.39956C0.17675 10.9933 2.52275 14.03 3.48259 17.428C3.58244 17.7915 3.67327 18.1698 3.77848 18.5345C3.88949 18.9231 3.87486 19.6518 4.26788 19.9275C4.69248 20.1513 5.32907 19.7929 5.72428 19.7144C6.09894 19.6396 6.47313 19.5422 6.84243 19.4662C10.2985 18.7449 14.0762 19.4119 17.3399 17.8948C18.3194 17.4404 19.195 16.8495 19.8969 16.0332C20.6021 15.2147 21.3833 13.9041 21.5384 12.8078C21.9032 10.2279 21.1204 8.14854 19.0543 6.91583L18.8212 6.77805C18.0094 6.30239 17.1161 6.01078 16.1905 5.87229C15.1963 5.72652 14.3495 5.89601 13.3753 5.92094C13.0079 5.927 12.6298 5.69693 12.4654 5.36936C12.0351 4.49388 11.794 3.66453 11.2025 2.85355C10.6493 2.09639 9.97701 1.44149 9.17995 0.938228C9.10581 0.893116 9.0296 0.844717 8.95011 0.798381C6.90089 -0.458626 4.68924 -0.193091 2.57341 1.32748C1.6749 1.96938 0.876806 3.2677 0.477631 4.27438Z" fill="#FF4D67" fill-opacity="0.3"/>
</svg>
