<svg width="70" height="64" viewBox="0 0 70 64" fill="none" xmlns="http://www.w3.org/2000/svg">
<path fill-rule="evenodd" clip-rule="evenodd" d="M34.9923 5.50046C36.3469 4.55118 37.7358 3.71267 39.1467 2.99452C45.6563 -0.318881 53.3739 -1.36041 59.9931 2.46119C66.6123 6.28275 69.5692 13.4872 69.9545 20.7814C70.3432 28.1396 68.2353 36.3878 63.8529 43.9785L63.8529 43.9785C59.4704 51.5691 53.3812 57.5187 46.8144 60.8612C41.9265 63.3491 36.3576 64.5562 31.084 63.3853C30.6078 63.3999 30.1219 63.3543 29.6358 63.2425C20.6024 61.1652 11.8542 53.8632 6.14722 43.9785L6.14721 43.9785C1.76479 36.3879 -0.343212 28.1396 0.0454927 20.7814C0.430813 13.4872 3.38765 6.28276 10.0069 2.46118L10.0069 2.46117C18.0245 -2.16774 27.4336 0.235739 34.9923 5.50046ZM16.077 38.4927C16.5683 32.392 18.6162 25.9259 22.1083 19.8773C23.4258 17.5955 24.8974 15.4619 26.4899 13.5029C21.9118 10.9203 18.0044 10.9401 15.6777 12.2834L12.8423 7.37231L15.6777 12.2834C13.4818 13.5512 11.6318 16.4513 11.3714 21.3797C11.1145 26.244 12.522 32.3365 15.9694 38.3076M16.077 38.4927C16.041 38.4312 16.0052 38.3695 15.9694 38.3076L16.077 38.4927ZM31.6388 51.5723C33.8347 52.8401 37.2713 52.9922 41.6696 50.7535C46.0107 48.5439 50.5832 44.2787 54.0306 38.3076C57.478 32.3365 58.8855 26.244 58.6286 21.3797C58.3682 16.4513 56.5182 13.5512 54.3223 12.2834L57.1452 7.39391L54.3223 12.2834C52.1264 11.0156 48.6898 10.8635 44.2915 13.1022C39.9504 15.3119 35.378 19.5771 31.9306 25.5482L27.0195 22.7127L31.9306 25.5482C28.4832 31.5192 27.0756 37.6117 27.3326 42.476C27.5929 47.4044 29.4429 50.3045 31.6388 51.5723Z" fill="white"/>
</svg>
