<svg width="26" height="24" viewBox="0 0 26 24" fill="none" xmlns="http://www.w3.org/2000/svg">
<path d="M0.653964 4.97562C0.144466 6.16404 -0.0250862 7.42176 0.00293194 8.71944C0.0997932 13.0448 2.83327 16.7627 3.88988 20.8754C3.99952 21.3153 4.09789 21.7727 4.21392 22.2142C4.33626 22.6846 4.29779 23.5601 4.7624 23.9029C5.26646 24.1841 6.04205 23.7715 6.51944 23.6884C6.972 23.6093 7.42466 23.5029 7.87083 23.4221C12.0465 22.6539 16.5691 23.5639 20.5362 21.8336C21.7268 21.3153 22.7964 20.63 23.6637 19.6686C24.535 18.7049 25.5117 17.1516 25.7295 15.838C26.242 12.7469 25.3604 10.2245 22.9119 8.68334L22.6355 8.51102C21.6732 7.9159 20.6075 7.53974 19.4988 7.34672C18.3076 7.143 17.2848 7.32252 16.1129 7.32459C15.671 7.32135 15.223 7.03392 15.0348 6.63539C14.5424 5.57054 14.2764 4.56656 13.5884 3.57463C12.9451 2.6485 12.1556 1.8419 11.2117 1.21403C11.1239 1.15768 11.0337 1.09731 10.9394 1.03932C8.51179 -0.530588 5.84526 -0.274698 3.25799 1.49278C2.15938 2.23876 1.1627 3.77679 0.653964 4.97562Z" fill="#FF4D67" fill-opacity="0.7"/>
</svg>
