<svg width="49" height="44" viewBox="0 0 49 44" fill="none" xmlns="http://www.w3.org/2000/svg">
<path d="M3.06548 32.6974C4.45115 34.6016 6.26186 36.0383 8.31911 37.2029C15.1794 41.0794 23.5445 40.2633 30.9658 42.4395C31.7564 42.6776 32.564 42.9496 33.3631 43.1791C34.2132 43.4257 35.5479 44.3013 36.517 43.8932C37.4266 43.3662 37.5031 41.768 37.8177 40.9434C38.1152 40.1613 38.3702 39.3537 38.6593 38.5801C41.3456 31.3287 46.9818 25.0974 47.9679 17.2765C48.2654 14.9302 48.1889 12.6179 47.4918 10.3652C46.7948 8.10389 45.2731 5.12853 43.4199 3.56434C39.0588 -0.116604 34.2897 -1.08572 29.5972 1.31157L29.0701 1.5836C27.2424 2.53572 25.6612 3.85338 24.3265 5.40906C22.8984 7.08377 22.2268 8.85198 21.1387 10.6882C20.7221 11.3768 19.855 11.8103 19.0559 11.7338C16.9307 11.5128 15.1114 10.9942 12.9182 11.1473C10.8694 11.2918 8.87168 11.7763 7.00995 12.6689C6.83993 12.754 6.66141 12.839 6.48289 12.9325C1.76482 15.2703 -0.317932 19.6823 0.0391114 25.378C0.183629 27.7923 1.66281 30.7846 3.06548 32.6974Z" fill="#FF4D67" fill-opacity="0.7"/>
</svg>
