<svg width="48" height="44" viewBox="0 0 48 44" fill="none" xmlns="http://www.w3.org/2000/svg">
<path d="M0.846224 9.84405C0.0492523 12.0649 -0.120888 14.3744 0.073235 16.7349C0.726606 24.6025 6.11541 31.073 8.49347 38.4476C8.74167 39.2367 8.97128 40.0591 9.23131 40.8504C9.50599 41.6936 9.53249 43.2926 10.4165 43.8657C11.3657 44.3223 12.7328 43.4853 13.5932 43.2813C14.4088 43.0872 15.2215 42.8435 16.0253 42.6472C23.5464 40.7875 31.8842 41.9464 38.9193 38.3572C41.0308 37.2819 42.9033 35.9158 44.377 34.0691C45.8577 32.2176 47.4655 29.2807 47.7173 26.8641C48.31 21.1773 46.4261 16.6802 41.7963 14.1431L41.274 13.8597C39.4555 12.8818 37.473 12.3142 35.4322 12.0849C33.2401 11.8451 31.3969 12.2849 29.2625 12.4179C28.4574 12.4607 27.6097 11.9866 27.2229 11.2815C26.2087 9.39619 25.6134 7.59685 24.251 5.86597C22.977 4.25003 21.4501 2.86792 19.6617 1.82839C19.4955 1.73542 19.3245 1.63541 19.1464 1.54019C14.5516 -1.0516 9.72287 -0.291482 5.20523 3.21316C3.28645 4.69305 1.64066 7.60436 0.846224 9.84405Z" fill="#FF4D67" fill-opacity="0.7"/>
</svg>
