<svg width="30" height="30" viewBox="0 0 30 30" fill="none" xmlns="http://www.w3.org/2000/svg">
<path d="M15 0C6.705 0 0 6.705 0 15C0 23.295 6.705 30 15 30C23.295 30 30 23.295 30 15C30 6.705 23.295 0 15 0ZM21.45 21.45C20.865 22.035 19.92 22.035 19.335 21.45L15 17.115L10.665 21.45C10.08 22.035 9.135 22.035 8.55 21.45C7.965 20.865 7.965 19.92 8.55 19.335L12.885 15L8.55 10.665C7.965 10.08 7.965 9.135 8.55 8.55C9.135 7.965 10.08 7.965 10.665 8.55L15 12.885L19.335 8.55C19.92 7.965 20.865 7.965 21.45 8.55C22.035 9.135 22.035 10.08 21.45 10.665L17.115 15L21.45 19.335C22.02 19.905 22.02 20.865 21.45 21.45Z" fill="white"/>
</svg>
