<svg width="17" height="17" viewBox="0 0 17 17" fill="none" xmlns="http://www.w3.org/2000/svg">
<mask id="mask0_0_374" style="mask-type:alpha" maskUnits="userSpaceOnUse" x="2" y="2" width="13" height="13">
<path fill-rule="evenodd" clip-rule="evenodd" d="M14.6687 3.98941C14.945 4.26566 14.945 4.71191 14.6687 4.98816L13.3725 6.28441L10.7162 3.62816L12.0125 2.33191C12.1448 2.19927 12.3245 2.12473 12.5119 2.12473C12.6992 2.12473 12.8789 2.19927 13.0112 2.33191L14.6687 3.98941ZM2.12417 14.523V12.3696C2.12417 12.2705 2.15959 12.1855 2.23042 12.1146L9.95834 4.3867L12.6146 7.04295L4.87959 14.7709C4.81584 14.8417 4.72375 14.8771 4.63167 14.8771H2.47834C2.28 14.8771 2.12417 14.7213 2.12417 14.523Z" fill="black"/>
</mask>
<g mask="url(#mask0_0_374)">
<rect width="17" height="17" fill="white"/>
</g>
</svg>
