<svg width="13" height="12" viewBox="0 0 13 12" fill="none" xmlns="http://www.w3.org/2000/svg">
<path d="M1.4195 10.7776C1.90541 11.2175 2.48051 11.5059 3.1073 11.7061C5.19704 12.3718 7.42966 11.6734 9.5755 11.8439C9.80444 11.8637 10.04 11.8919 10.2707 11.9089C10.5164 11.9277 10.9298 12.0903 11.1707 11.924C11.3885 11.7286 11.3184 11.2888 11.3571 11.0463C11.3937 10.8163 11.4172 10.5817 11.4519 10.3545C11.7711 8.22594 12.952 6.20744 12.7756 4.02048C12.7231 3.3643 12.5706 2.73867 12.2525 2.16457C11.9339 1.58816 11.3499 0.864124 10.756 0.543435C9.35832 -0.211233 8.00382 -0.203835 6.86177 0.716393L6.73365 0.820507C6.28987 1.18394 5.93407 1.63293 5.65898 2.13275C5.36519 2.67031 5.28286 3.19028 5.09091 3.7525C5.01661 3.96381 4.80504 4.13129 4.58297 4.15592C3.99136 4.21666 3.46619 4.17892 2.87734 4.34545C2.32738 4.50143 1.81068 4.74715 1.35425 5.0963C1.31276 5.12914 1.26896 5.16246 1.22565 5.1981C0.0732572 6.10357 -0.243078 7.42417 0.178374 8.95565C0.35516 9.60521 0.928478 10.3363 1.4195 10.7776Z" fill="#FF4D67" fill-opacity="0.5"/>
</svg>
