<svg width="50" height="44" viewBox="0 0 50 44" fill="none" xmlns="http://www.w3.org/2000/svg">
<path d="M2.11968 28.6784C3.26245 30.7438 4.88581 32.3967 6.78801 33.8094C13.1322 38.5134 21.5532 38.736 28.6657 41.8183C29.4226 42.1528 30.1923 42.5232 30.9587 42.8503C31.7738 43.2006 32.993 44.2366 34.0074 43.9505C34.9773 43.5388 35.251 41.9586 35.6658 41.1773C36.0584 40.4362 36.412 39.6645 36.7951 38.9308C40.3637 32.0505 46.7401 26.5496 48.688 18.8925C49.2741 16.5956 49.4839 14.2863 49.0691 11.9594C48.6554 9.62409 47.5097 6.47654 45.8599 4.69159C41.9774 0.491149 37.3537 -1.06247 32.3899 0.741715L31.832 0.947116C29.8964 1.66812 28.1608 2.7832 26.6409 4.16551C25.0133 5.65463 24.1267 7.33031 22.8174 9.02213C22.3179 9.65551 21.4018 9.97952 20.6165 9.80461C18.53 9.32198 16.7846 8.58125 14.5842 8.46225C12.5286 8.35266 10.4816 8.5876 8.51953 9.24521C8.33991 9.30875 8.15183 9.37122 7.96271 9.44216C2.98088 11.184 0.363752 15.3148 0.0146007 21.0241C-0.140187 23.4433 0.961047 26.6025 2.11968 28.6784Z" fill="#FF4D67" fill-opacity="0.7"/>
</svg>
