<svg width="12" height="13" viewBox="0 0 12 13" fill="none" xmlns="http://www.w3.org/2000/svg">
<path d="M2.23689 12.3393C2.81483 12.6436 3.44131 12.7795 4.09586 12.8176C6.27768 12.9426 8.25959 11.7156 10.3729 11.3488C10.5988 11.3112 10.8331 11.2801 11.0601 11.2394C11.3018 11.1967 11.7412 11.2512 11.9324 11.0311C12.0943 10.7886 11.9177 10.3815 11.895 10.1377C11.8733 9.90667 11.838 9.67447 11.8152 9.44657C11.5962 7.3131 12.2361 5.07243 11.5242 3.00533C11.3111 2.38499 11.009 1.8189 10.5598 1.34357C10.1095 0.866134 9.3666 0.311914 8.71392 0.149475C7.17803 -0.232799 5.87253 0.109767 4.99812 1.28077L4.90025 1.41298C4.56193 1.87366 4.3297 2.39512 4.18796 2.94566C4.03752 3.53725 4.08682 4.05951 4.04078 4.64969C4.02139 4.87204 3.85867 5.08608 3.65043 5.16485C3.09446 5.36998 2.57824 5.4636 2.05113 5.77015C1.55895 6.05689 1.12108 6.42201 0.767009 6.87203C0.735101 6.914 0.701078 6.95701 0.668095 7.00213C-0.219941 8.16145 -0.198229 9.51441 0.5878 10.8882C0.919284 11.4713 1.65368 12.035 2.23689 12.3393Z" fill="#FF4D67" fill-opacity="0.7"/>
</svg>
