<svg width="124" height="124" viewBox="0 0 124 124" fill="none" xmlns="http://www.w3.org/2000/svg">
<g filter="url(#filter0_d_3453_12913)">
<path d="M62 58C63.1 58 64 57.1 64 56C64 54.9 63.1 54 62 54C60.9 54 60 54.9 60 56C60 57.1 60.9 58 62 58ZM62 60C60.9 60 60 60.9 60 62C60 63.1 60.9 64 62 64C63.1 64 64 63.1 64 62C64 60.9 63.1 60 62 60ZM62 66C60.9 66 60 66.9 60 68C60 69.1 60.9 70 62 70C63.1 70 64 69.1 64 68C64 66.9 63.1 66 62 66Z" fill="white"/>
</g>
<defs>
<filter id="filter0_d_3453_12913" x="-10" y="-10" width="144" height="144" filterUnits="userSpaceOnUse" color-interpolation-filters="sRGB">
<feFlood flood-opacity="0" result="BackgroundImageFix"/>
<feColorMatrix in="SourceAlpha" type="matrix" values="0 0 0 0 0 0 0 0 0 0 0 0 0 0 0 0 0 0 127 0" result="hardAlpha"/>
<feOffset/>
<feGaussianBlur stdDeviation="25"/>
<feColorMatrix type="matrix" values="0 0 0 0 0.352941 0 0 0 0 0.423529 0 0 0 0 0.917647 0 0 0 0.08 0"/>
<feBlend mode="normal" in2="BackgroundImageFix" result="effect1_dropShadow_3453_12913"/>
<feBlend mode="normal" in="SourceGraphic" in2="effect1_dropShadow_3453_12913" result="shape"/>
</filter>
</defs>
</svg>
